HIERARCHY
ROOT Hips
{
	OFFSET 0.00000 0.00000 0.00000
	CHANNELS 6 Xposition Yposition Zposition Zrotation Yrotation Xrotation 
	JOINT LHipJoint
	{
		OFFSET 0 0 0
		CHANNELS 3 Zrotation Yrotation Xrotation
		JOINT LeftUpLeg
		{
			OFFSET 1.84395 -1.68683 0.74144
			CHANNELS 3 Zrotation Yrotation Xrotation
			JOINT LeftLeg
			{
				OFFSET 2.27037 -6.23779 0.00000
				CHANNELS 3 Zrotation Yrotation Xrotation
				JOINT LeftFoot
				{
					OFFSET 2.56918 -7.05877 0.00000
					CHANNELS 3 Zrotation Yrotation Xrotation
					JOINT LeftToeBase
					{
						OFFSET 0.22276 -0.61202 1.71784
						CHANNELS 3 Zrotation Yrotation Xrotation
						End Site
						{
							OFFSET 0.00000 -0.00000 0.91613
						}
					}
				}
			}
		}
	}
	JOINT RHipJoint
	{
		OFFSET 0 0 0
		CHANNELS 3 Zrotation Yrotation Xrotation
		JOINT RightUpLeg
		{
			OFFSET -1.76833 -1.68684 0.74144
			CHANNELS 3 Zrotation Yrotation Xrotation
			JOINT RightLeg
			{
				OFFSET -2.49360 -6.85110 0.00000
				CHANNELS 3 Zrotation Yrotation Xrotation
				JOINT RightFoot
				{
					OFFSET -2.55538 -7.02085 0.00000
					CHANNELS 3 Zrotation Yrotation Xrotation
					JOINT RightToeBase
					{
						OFFSET -0.21516 -0.59115 1.68050
						CHANNELS 3 Zrotation Yrotation Xrotation
						End Site
						{
							OFFSET -0.00000 -0.00000 0.89604
						}
					}
				}
			}
		}
	}
	JOINT LowerBack
	{
		OFFSET 0 0 0
		CHANNELS 3 Zrotation Yrotation Xrotation
		JOINT Spine
		{
			OFFSET 0.06382 1.72312 -0.19613
			CHANNELS 3 Zrotation Yrotation Xrotation
			JOINT Spine1
			{
				OFFSET -0.00055 1.73507 0.23859
				CHANNELS 3 Zrotation Yrotation Xrotation
				JOINT Neck
				{
					OFFSET 0 0 0
					CHANNELS 3 Zrotation Yrotation Xrotation
					JOINT Neck1
					{
						OFFSET 0.03638 1.65562 0.09633
						CHANNELS 3 Zrotation Yrotation Xrotation
						JOINT Head
						{
							OFFSET 0.06388 1.62807 -0.32386
							CHANNELS 3 Zrotation Yrotation Xrotation
							End Site
							{
								OFFSET 0.00995 1.67644 -0.12021
							}
						}
					}
				}
				JOINT LeftShoulder
				{
					OFFSET 0 0 0
					CHANNELS 3 Zrotation Yrotation Xrotation
					JOINT LeftArm
					{
						OFFSET 3.09648 1.42991 0.28122
						CHANNELS 3 Zrotation Yrotation Xrotation
						JOINT LeftForeArm
						{
							OFFSET 5.11878 -0.00000 -0.00000
							CHANNELS 3 Zrotation Yrotation Xrotation
							JOINT LeftHand
							{
								OFFSET 3.59971 -0.00000 0.00000
								CHANNELS 3 Zrotation Yrotation Xrotation
								JOINT LeftFingerBase
								{
									OFFSET 0 0 0
									CHANNELS 3 Zrotation Yrotation Xrotation
									JOINT LeftHandIndex1
									{
										OFFSET 0.62877 -0.00000 0.00000
										CHANNELS 3 Zrotation Yrotation Xrotation
										End Site
										{
											OFFSET 0.50693 -0.00000 0.00000
										}
									}
								}
								JOINT LThumb
								{
									OFFSET 0 0 0
									CHANNELS 3 Zrotation Yrotation Xrotation
									End Site
									{
										OFFSET 0.51467 -0.00000 0.51467
									}
								}
							}
						}
					}
				}
				JOINT RightShoulder
				{
					OFFSET 0 0 0
					CHANNELS 3 Zrotation Yrotation Xrotation
					JOINT RightArm
					{
						OFFSET -3.33565 1.14597 0.05047
						CHANNELS 3 Zrotation Yrotation Xrotation
						JOINT RightForeArm
						{
							OFFSET -5.49020 -0.00000 0.00000
							CHANNELS 3 Zrotation Yrotation Xrotation
							JOINT RightHand
							{
								OFFSET -3.20659 -0.00000 -0.00000
								CHANNELS 3 Zrotation Yrotation Xrotation
								JOINT RightFingerBase
								{
									OFFSET 0 0 0
									CHANNELS 3 Zrotation Yrotation Xrotation
									JOINT RightHandIndex1
									{
										OFFSET -0.69188 -0.00000 0.00000
										CHANNELS 3 Zrotation Yrotation Xrotation
										End Site
										{
											OFFSET -0.55781 -0.00000 0.00000
										}
									}
								}
								JOINT RThumb
								{
									OFFSET 0 0 0
									CHANNELS 3 Zrotation Yrotation Xrotation
									End Site
									{
										OFFSET -0.56633 -0.00000 0.56633
									}
								}
							}
						}
					}
				}
			}
		}
	}
}
MOTION
Frames: 5
Frame Time: .0083333
0.0382 17.7818 7.9209 -9.4978 2.8060 21.6315 0.0000 0.0000 0.0000 0.4700 -50.9391 0.4215 0.0136 -0.7543 -2.0730 159.9608 -61.8248 7.6838 0.7817 5.6446 15.7565 0.0000 0.0000 0.0000 20.6070 25.2709 -15.9598 -0.1777 -2.7151 7.4865 0.8811 -19.7096 -19.1915 -0.0108 -0.6702 1.8419 5.0635 1.5615 18.4954 3.1976 3.0414 6.5936 -0.1032 1.4965 -3.1637 -0.0462 -3.0870 1.2340 23.0489 -6.4641 11.6837 7.0342 -2.3372 3.9904 0.0000 0.0000 0.0000 39.4733 -32.3582 -39.3060 141.5055 -47.1522 -102.6728 -0.0000 0.0000 -70.8156 8.6646 -11.5966 -1.7546 -7.1250 0.0000 -0.0000 -12.9071 18.4146 8.3842 0.0000 0.0000 0.0000 39.6848 -26.4275 77.8020 -137.6475 49.4035 -99.7922 0.0000 -0.0000 -42.9378 92.1654 13.2118 99.3938 7.1250 -0.0000 -0.0000 49.2924 -28.6937 33.7490
0.0191 17.7884 7.9225 -8.9621 2.4682 21.7882 0.0000 0.0000 0.0000 0.1407 -50.4134 -0.0955 0.0128 -0.7297 -2.0053 160.5995 -61.3243 7.2496 0.8093 5.7409 16.0345 0.0000 0.0000 0.0000 19.8806 25.6636 -16.0425 -0.1760 -2.7021 7.4505 0.9342 -20.0524 -19.2527 -0.0107 -0.6678 1.8351 4.5093 1.5623 18.3701 2.7791 2.9201 6.5644 -0.2074 1.4373 -3.1425 -0.5187 -3.0582 1.0143 23.1373 -6.4975 11.9446 7.1477 -2.3362 4.1251 -0.0000 -0.0000 0.0000 41.2378 -32.7864 -39.9446 141.1592 -47.3679 -102.4185 -0.0000 0.0000 -70.3727 8.6943 -11.3260 -1.7202 -7.1250 0.0000 -0.0000 -12.9012 18.6796 8.3023 -0.0000 -0.0000 0.0000 39.9235 -25.8699 77.9110 -137.5411 49.4611 -99.7114 0.0000 -0.0000 -42.3629 92.0216 12.9629 98.9427 7.1250 -0.0000 -0.0000 48.7730 -27.9752 34.5302
0.0050 17.7917 7.9179 -8.8804 2.3222 21.7643 0.0000 0.0000 0.0000 0.1888 -49.6808 -0.4823 0.0118 -0.7028 -1.9313 161.4376 -60.6222 6.7282 0.8266 5.8008 16.2074 0.0000 0.0000 0.0000 19.8423 25.7738 -15.9484 -0.1729 -2.6783 7.3843 0.9381 -20.0844 -19.2729 -0.0156 -0.8075 2.2193 4.4227 1.5228 18.4704 2.4898 2.8461 6.5549 -0.4532 1.4018 -3.1968 -0.8301 -3.0040 0.9866 23.0781 -6.4124 11.9446 7.1854 -2.3090 4.1231 0.0000 0.0000 0.0000 43.6267 -33.2552 -40.9942 140.5378 -47.7480 -101.9599 -0.0000 0.0000 -69.6514 9.1727 -10.5451 -1.6927 -7.1250 0.0000 -0.0000 -12.6123 19.4291 7.8908 0.0000 0.0000 0.0000 39.8777 -25.3601 78.0559 -137.7042 49.3728 -99.8352 0.0000 -0.0000 -41.5787 92.1714 13.0480 99.5333 7.1250 -0.0000 -0.0000 49.1420 -28.5253 33.8768
-0.0074 17.7965 7.9137 -8.9751 2.2118 21.7324 0.0000 0.0000 0.0000 0.3431 -49.2743 -0.6308 0.0110 -0.6785 -1.8644 161.8501 -60.3627 6.1341 0.8569 5.9033 16.5041 0.0000 0.0000 0.0000 20.0317 25.7881 -15.8454 -0.1686 -2.6454 7.2930 0.9278 -19.9754 -19.1617 -0.0228 -0.9751 2.6803 4.2915 1.5093 18.5576 2.3880 2.8030 6.6034 -0.4802 1.3807 -3.1937 -1.0595 -2.8977 0.7286 22.9482 -6.3050 12.1404 7.1859 -2.2408 4.2149 -0.0000 -0.0000 0.0000 46.1348 -33.4900 -42.3343 139.8635 -48.1506 -101.4591 -0.0000 0.0000 -69.1156 9.3216 -9.9792 -1.6293 -7.1250 0.0000 -0.0000 -12.5410 19.9822 7.6847 -0.0000 -0.0000 0.0000 39.4782 -24.8867 78.1860 -138.0308 49.1942 -100.0828 0.0000 -0.0000 -40.8406 91.9989 12.8654 98.9084 7.1250 -0.0000 -0.0000 48.6362 -27.7932 34.7045
-0.0201 17.8037 7.9127 -9.1421 2.0615 21.7435 0.0000 0.0000 0.0000 0.4599 -49.4011 -0.4188 0.0111 -0.6807 -1.8706 161.5640 -60.7798 5.7552 0.9022 6.0533 16.9391 0.0000 0.0000 0.0000 20.2944 25.7443 -15.7872 -0.1617 -2.5906 7.1411 0.9261 -19.8203 -18.8222 -0.0175 -0.8534 2.3454 4.0243 1.5844 18.5819 2.3876 2.8521 6.6563 -0.3402 1.4032 -3.1626 -1.2097 -2.8226 0.3502 23.0201 -6.2880 12.4172 7.2386 -2.1927 4.3701 0.0000 0.0000 0.0000 48.4933 -33.5865 -43.6322 139.4391 -48.3987 -101.1424 -0.0000 0.0000 -68.9366 9.1856 -9.7963 -1.5760 -7.1250 0.0000 -0.0000 -12.6478 20.1680 7.6992 0.0000 0.0000 0.0000 39.0439 -24.7176 78.2272 -138.4016 48.9889 -100.3630 0.0000 -0.0000 -40.2521 90.8555 11.1343 94.4214 7.1250 -0.0000 -0.0000 45.1772 -21.8290 40.5117
